<svg width="16" height="12" viewBox="0 0 16 12" fill="none" xmlns="http://www.w3.org/2000/svg">
<path fill-rule="evenodd" clip-rule="evenodd" d="M7.31348 1.03621V1.03621C7.38904 1.29973 7.63072 1.60731 7.90451 1.59336C10.0474 1.48423 12.0856 2.57325 13.1901 4.40087C13.2089 4.43204 13.1929 4.47252 13.1579 4.48256V4.48256C13.5357 4.37423 13.9298 4.59268 14.0381 4.97049C14.0408 4.97994 14.0353 4.98979 14.0259 4.9925L1.96456 8.45103C1.95512 8.45374 1.94526 8.44828 1.94255 8.43883C1.83425 8.06114 2.05254 7.66716 2.43013 7.55869V7.55869C2.3953 7.56868 2.36039 7.543 2.35985 7.50676C2.32789 5.37142 3.47933 3.36761 5.35453 2.32455C5.59411 2.19129 5.63607 1.80239 5.5605 1.53886V1.53886C5.4217 1.05479 5.70159 0.549851 6.18566 0.411045C6.66973 0.27224 7.17467 0.552134 7.31348 1.03621ZM6.96478 2.46745C4.88314 3.14424 3.51726 5.0473 3.44242 7.13882C3.43966 7.2161 3.38848 7.28384 3.31414 7.30516V7.30516C3.20175 7.33739 3.09003 7.2522 3.09661 7.13547C3.21541 5.02737 4.64428 3.12952 6.7886 2.51465C6.84728 2.49782 6.90602 2.48209 6.96478 2.46745ZM0.0816792 9.43624C0.00905635 9.43624 -0.0273132 9.52405 0.0240389 9.5754C0.635526 10.1869 1.46488 10.5304 2.32965 10.5304H13.6703C14.5351 10.5304 15.3645 10.1869 15.976 9.5754C16.0273 9.52405 15.9909 9.43624 15.9183 9.43624H0.0816792ZM4.10315 11.6246C3.98835 11.6246 3.88025 11.5705 3.81137 11.4787V11.4787C3.63104 11.2383 3.8026 10.8951 4.10315 10.8951H11.9447C12.2453 10.8951 12.4168 11.2383 12.2365 11.4787V11.4787C12.1676 11.5705 12.0595 11.6246 11.9447 11.6246H4.10315ZM2.79171 8.67739C2.81766 8.65652 2.84181 8.63395 2.86405 8.60991C2.90251 8.56834 2.94878 8.53352 3.00322 8.51791L3.23965 8.45011C3.26297 8.44343 3.28661 8.45936 3.29408 8.48244V8.48244C3.33972 8.62352 3.48651 8.70896 3.64058 8.70678C3.78778 8.7047 3.9051 8.60513 3.95704 8.47308C3.96115 8.46263 3.96515 8.45199 3.96899 8.44121C4.01231 8.31967 4.09713 8.20423 4.22116 8.16867L4.2914 8.14853C4.35598 8.13001 4.42435 8.15198 4.47799 8.19244V8.19244C4.61514 8.29591 4.79534 8.40079 4.93723 8.30338V8.30338C5.11838 8.179 5.18407 7.89256 5.39529 7.83199L5.9315 7.67824C6.04093 7.64686 6.15675 7.69029 6.23527 7.77272V7.77272C6.36791 7.91196 6.53075 8.02685 6.67725 8.1235C6.95073 8.30392 7.26946 8.35802 7.57834 8.33823C7.86462 8.31988 8.1668 8.22806 8.38678 8.00436C8.60866 7.77873 8.65903 7.47744 8.674 7.22617L8.67518 7.20643V7.20643C8.6755 7.2011 8.67583 7.19572 8.67615 7.19029C8.68667 7.01445 8.80172 6.85521 8.97106 6.80666L9.41165 6.68032C9.45685 6.66736 9.50191 6.70527 9.51638 6.75V6.75C9.56203 6.89108 9.70881 6.97652 9.86289 6.97434C10.0101 6.97226 10.1274 6.87269 10.1793 6.74064V6.74064C10.2429 6.57906 10.355 6.40982 10.5219 6.36197L10.8851 6.25781C11.1183 6.19094 11.3677 6.27809 11.6074 6.31523V6.31523C11.8975 6.36016 12.125 6.58771 12.1699 6.87774C12.2051 7.10474 12.3535 7.29817 12.5637 7.39089C12.8322 7.50935 12.9931 7.78804 12.9614 8.07982C12.9367 8.30818 13.03 8.53344 13.209 8.67739V8.67739C13.3987 8.82995 13.2208 9.07152 12.9774 9.07152H11.6128C11.4373 9.07152 11.2466 8.8304 11.1823 8.66702V8.66702C11.1304 8.53498 11.0131 8.4354 10.8659 8.43332C10.7118 8.43114 10.565 8.51658 10.5194 8.65766C10.4753 8.79377 10.5615 8.92494 10.6783 9.01307V9.01307C10.7021 9.03101 10.6896 9.07152 10.6598 9.07152H8.64051C8.75237 9.06984 8.87174 8.99551 8.96932 8.92189C9.08614 8.83376 9.17228 8.70259 9.12824 8.56648C9.0826 8.4254 8.93581 8.33996 8.78174 8.34214C8.63453 8.34422 8.51722 8.44379 8.46528 8.57584C8.40303 8.73412 8.36662 8.93433 8.51007 9.03282C8.5487 9.05934 8.59016 9.07087 8.63282 9.07152H3.02332C2.77987 9.07152 2.602 8.82995 2.79171 8.67739V8.67739ZM6.49935 7.52115V7.52115C6.4974 7.51909 6.49833 7.5157 6.50105 7.51492L8.12295 7.04985C8.22091 7.02176 8.31639 7.09584 8.31033 7.19757V7.19757L8.31033 7.19759L8.30992 7.20449C8.2961 7.43653 8.25134 7.62191 8.12673 7.74863C7.9906 7.88706 7.78688 7.95939 7.55502 7.97425C7.30222 7.99045 7.06828 7.94453 6.8781 7.81906C6.73515 7.72475 6.60176 7.62865 6.49935 7.52115ZM5.77276 8.6156C5.62556 8.61352 5.50824 8.51395 5.4563 8.3819C5.39405 8.22362 5.35764 8.02341 5.5011 7.92491C5.64299 7.8275 5.82319 7.93238 5.96034 8.03585C6.07716 8.12398 6.1633 8.25515 6.11927 8.39126C6.07362 8.53234 5.92684 8.61778 5.77276 8.6156ZM9.63226 7.83481C9.58032 7.96686 9.46301 8.06644 9.31581 8.06851C9.16173 8.07069 9.01495 7.98525 8.9693 7.84417C8.92526 7.70807 9.0114 7.57689 9.12822 7.48876C9.26538 7.38529 9.44557 7.28041 9.58747 7.37783C9.73093 7.47632 9.69451 7.67654 9.63226 7.83481ZM10.9701 7.33907C10.8229 7.33699 10.7056 7.23741 10.6536 7.10536C10.5914 6.94709 10.555 6.74687 10.6984 6.64838C10.8403 6.55096 11.0205 6.65584 11.1577 6.75931C11.2745 6.84744 11.3606 6.97862 11.3166 7.11472C11.2709 7.25581 11.1242 7.34124 10.9701 7.33907ZM10.0154 7.75521C10.0673 7.62316 10.1846 7.52359 10.3318 7.52151C10.4859 7.51933 10.6327 7.60477 10.6783 7.74585C10.7224 7.88196 10.6362 8.01313 10.5194 8.10126C10.3822 8.20473 10.202 8.30961 10.0602 8.21219C9.91669 8.1137 9.95311 7.91349 10.0154 7.75521ZM11.8206 7.75521C11.7687 7.62316 11.6514 7.52359 11.5042 7.52151C11.3501 7.51933 11.2033 7.60477 11.1576 7.74585C11.1136 7.88196 11.1997 8.01313 11.3166 8.10126C11.4537 8.20473 11.6339 8.30961 11.7758 8.21219C11.9193 8.1137 11.8829 7.91349 11.8206 7.75521ZM12.2949 8.47308C12.3468 8.60513 12.4641 8.7047 12.6113 8.70678C12.7654 8.70896 12.9122 8.62352 12.9578 8.48244C13.0019 8.34633 12.9157 8.21516 12.7989 8.12703C12.6618 8.02356 12.4816 7.91868 12.3397 8.0161C12.1962 8.11459 12.2326 8.31481 12.2949 8.47308Z" fill="#D04922"/>
</svg>
